<?xml version="1.0" encoding="UTF-8" standalone="no"?>
<svg
   xmlns:dc="http://purl.org/dc/elements/1.1/"
   xmlns:cc="http://creativecommons.org/ns#"
   xmlns:rdf="http://www.w3.org/1999/02/22-rdf-syntax-ns#"
   xmlns:svg="http://www.w3.org/2000/svg"
   xmlns="http://www.w3.org/2000/svg"
   xmlns:sodipodi="http://sodipodi.sourceforge.net/DTD/sodipodi-0.dtd"
   xmlns:inkscape="http://www.inkscape.org/namespaces/inkscape"
   width="1024"
   height="1024"
   viewBox="0 0 270.93333 270.93334"
   version="1.1"
   id="svg426"
   inkscape:version="1.0.2 (e86c870879, 2021-01-15)"
   sodipodi:docname="qbqb1024.svg">
  <defs
     id="defs420" />
  <sodipodi:namedview
     id="base"
     pagecolor="#ffffff"
     bordercolor="#666666"
     borderopacity="1.0"
     inkscape:pageopacity="0.0"
     inkscape:pageshadow="2"
     inkscape:zoom="0.45384827"
     inkscape:cx="367.00108"
     inkscape:cy="529.59314"
     inkscape:document-units="px"
     inkscape:current-layer="layer1"
     inkscape:document-rotation="0"
     showgrid="false"
     units="px"
     inkscape:window-width="1364"
     inkscape:window-height="697"
     inkscape:window-x="0"
     inkscape:window-y="768"
     inkscape:window-maximized="0" />
  <metadata
     id="metadata423">
    <rdf:RDF>
      <cc:Work
         rdf:about="">
        <dc:format>image/svg+xml</dc:format>
        <dc:type
           rdf:resource="http://purl.org/dc/dcmitype/StillImage" />
        <dc:title></dc:title>
      </cc:Work>
    </rdf:RDF>
  </metadata>
  <g
     inkscape:label="Layer 1"
     inkscape:groupmode="layer"
     id="layer1">
    <path
       id="rect33-93-032-3"
       style="fill:#008800;fill-opacity:1;fill-rule:evenodd;stroke:#ffffff;stroke-width:2.10026;stroke-linecap:butt;stroke-miterlimit:4;stroke-dasharray:none;stroke-opacity:1;paint-order:normal"
       d="M 135.46692,1.0502299 V 34.654289 h 33.60363 5e-4 v 50.406188 67.208313 50.4062 h -5e-4 c 0,16.80203 16.8026,33.60405 33.60465,33.60405 h 33.60412 V 202.67499 H 202.6752 V 152.26879 85.060477 34.654289 c 0,-16.802029 -16.80242,-33.6040591 -33.60465,-33.6040591 z" />
    <path
       id="rect33-93-0-1-6"
       style="fill:#008800;fill-opacity:1;fill-rule:evenodd;stroke:#ffffff;stroke-width:2.10026;stroke-linecap:butt;stroke-miterlimit:4;stroke-dasharray:none;stroke-opacity:1;paint-order:normal"
       d="m 101.86255,85.060378 c 0,16.802132 16.80204,33.604162 33.60417,33.604162 h 33.60407 V 85.060378 h -33.60407 z" />
    <path
       id="rect33-9-70-8-7"
       style="fill:#008800;fill-opacity:1;fill-rule:evenodd;stroke:#ffffff;stroke-width:2.10026;stroke-linecap:butt;stroke-miterlimit:4;stroke-dasharray:none;stroke-opacity:1;paint-order:normal"
       d="m 34.6545,34.654289 v 33.604158 h 33.603636 4.96e-4 v 50.406193 67.20822 50.40618 h -4.96e-4 c 0,16.80214 16.802592,33.60416 33.604644,33.60416 h 33.60414 V 236.27904 H 101.86278 V 185.87286 118.66464 68.258447 c 0,-16.802029 -16.802628,-33.604158 -33.604644,-33.604158 z" />
    <path
       id="rect33-3-4-6-2-5-5"
       style="fill:#008800;fill-opacity:1;fill-rule:evenodd;stroke:#ffffff;stroke-width:2.10026;stroke-linecap:butt;stroke-miterlimit:4;stroke-dasharray:none;stroke-opacity:1;paint-order:normal"
       d="m 101.86255,152.2687 v 33.60406 h 33.60417 33.60407 c 0,-16.80203 -16.80203,-33.60406 -33.60407,-33.60406 z" />
    <path
       id="rect33-3-3-2-9-9-3"
       style="fill:#008800;fill-opacity:1;fill-rule:evenodd;stroke:#ffffff;stroke-width:2.10026;stroke-linecap:butt;stroke-miterlimit:4;stroke-dasharray:none;stroke-opacity:1;paint-order:normal"
       d="m 202.67497,118.66454 v 33.60416 h 33.60416 33.60407 c 0,-16.80213 -16.80203,-33.60416 -33.60407,-33.60416 z" />
    <path
       id="rect33-9-0-3-27-6"
       style="fill:#008800;fill-opacity:1;fill-rule:evenodd;stroke:#ffffff;stroke-width:2.10026;stroke-linecap:butt;stroke-miterlimit:4;stroke-dasharray:none;stroke-opacity:1;paint-order:normal"
       d="m 1.0501306,118.66454 c 0,16.80203 16.8020364,33.60416 33.6041714,33.60416 H 68.258374 V 118.66454 H 34.654302 Z" />
    <path
       id="path2260-3-5-8-2"
       style="fill:#008800;fill-opacity:1;fill-rule:evenodd;stroke:#ffffff;stroke-width:2.10026;stroke-linecap:butt;stroke-miterlimit:4;stroke-dasharray:none;stroke-opacity:1;paint-order:normal"
       d="m 34.654302,34.654189 c -16.802135,0 -33.6041714,16.802129 -33.6041714,33.604159 V 118.66454 H 34.654302 V 68.258348 Z" />
    <path
       id="path2260-3-5-2-0-7"
       style="fill:#008800;fill-opacity:1;fill-rule:evenodd;stroke:#ffffff;stroke-width:2.10026;stroke-linecap:butt;stroke-miterlimit:4;stroke-dasharray:none;stroke-opacity:1;paint-order:normal"
       d="m 135.46672,1.0501306 c -16.80213,0 -33.60417,16.8020304 -33.60417,33.6040584 v 50.406189 h 33.60417 V 34.654189 Z" />
    <path
       id="path2260-3-5-6-27-0"
       style="fill:#008800;fill-opacity:1;fill-rule:evenodd;stroke:#ffffff;stroke-width:2.10026;stroke-linecap:butt;stroke-miterlimit:4;stroke-dasharray:none;stroke-opacity:1;paint-order:normal"
       d="m 236.27913,152.2687 v 50.40619 33.60405 c 16.80204,0 33.60407,-16.80202 33.60407,-33.60405 V 152.2687 Z" />
    <path
       id="path2260-3-5-6-1-8-9"
       style="fill:#008800;fill-opacity:1;fill-rule:evenodd;stroke:#ffffff;stroke-width:2.10026;stroke-linecap:butt;stroke-miterlimit:4;stroke-dasharray:none;stroke-opacity:1;paint-order:normal"
       d="m 135.46672,185.87276 v 50.40618 33.60416 c 16.80204,0 33.60407,-16.80212 33.60407,-33.60416 v -50.40618 z" />
  </g>
</svg>
